<svg width="400" height="600" viewBox="0 0 400 600" fill="none" xmlns="http://www.w3.org/2000/svg">
  <defs>
    <linearGradient id="grad1" x1="0%" y1="0%" x2="100%" y2="100%">
      <stop offset="0%" style="stop-color:#d4ba7d;stop-opacity:0.3" />
      <stop offset="100%" style="stop-color:#02333d;stop-opacity:0.1" />
    </linearGradient>
    <linearGradient id="grad2" x1="0%" y1="0%" x2="100%" y2="100%">
      <stop offset="0%" style="stop-color:#02333d;stop-opacity:0.2" />
      <stop offset="100%" style="stop-color:#d4ba7d;stop-opacity:0.15" />
    </linearGradient>
  </defs>
  
  <!-- Large decorative circles -->
  <circle cx="50" cy="100" r="80" fill="url(#grad1)" opacity="0.6"/>
  <circle cx="150" cy="300" r="120" fill="url(#grad2)" opacity="0.4"/>
  <circle cx="80" cy="450" r="60" fill="url(#grad1)" opacity="0.7"/>
  
  <!-- Geometric shapes -->
  <rect x="200" y="50" width="40" height="40" rx="8" fill="#d4ba7d" opacity="0.3" transform="rotate(45 220 70)"/>
  <rect x="250" y="200" width="60" height="60" rx="12" fill="#02333d" opacity="0.25" transform="rotate(30 280 230)"/>
  <rect x="180" y="400" width="35" height="35" rx="6" fill="#d4ba7d" opacity="0.4" transform="rotate(60 197 417)"/>
  
  <!-- Flowing lines -->
  <path d="M 0 200 Q 100 150 200 200 T 400 180" stroke="#d4ba7d" stroke-width="2" fill="none" opacity="0.3"/>
  <path d="M 0 350 Q 150 300 300 350 T 400 320" stroke="#02333d" stroke-width="1.5" fill="none" opacity="0.25"/>
  
  <!-- Small accent dots -->
  <circle cx="320" cy="120" r="8" fill="#d4ba7d" opacity="0.5"/>
  <circle cx="350" cy="280" r="6" fill="#02333d" opacity="0.6"/>
  <circle cx="300" cy="480" r="10" fill="#d4ba7d" opacity="0.4"/>
  <circle cx="380" cy="400" r="5" fill="#02333d" opacity="0.7"/>
</svg>

