<svg width="400" height="600" viewBox="0 0 400 600" fill="none" xmlns="http://www.w3.org/2000/svg">
  <defs>
    <linearGradient id="grad3" x1="0%" y1="0%" x2="100%" y2="100%">
      <stop offset="0%" style="stop-color:#02333d;stop-opacity:0.3" />
      <stop offset="100%" style="stop-color:#d4ba7d;stop-opacity:0.1" />
    </linearGradient>
    <linearGradient id="grad4" x1="0%" y1="0%" x2="100%" y2="100%">
      <stop offset="0%" style="stop-color:#d4ba7d;stop-opacity:0.25" />
      <stop offset="100%" style="stop-color:#02333d;stop-opacity:0.15" />
    </linearGradient>
    <radialGradient id="radial1" cx="50%" cy="50%" r="50%">
      <stop offset="0%" style="stop-color:#d4ba7d;stop-opacity:0.4" />
      <stop offset="100%" style="stop-color:#d4ba7d;stop-opacity:0.1" />
    </radialGradient>
  </defs>
  
  <!-- Large decorative circles -->
  <circle cx="350" cy="150" r="90" fill="url(#grad3)" opacity="0.5"/>
  <circle cx="250" cy="350" r="110" fill="url(#radial1)" opacity="0.6"/>
  <circle cx="320" cy="500" r="70" fill="url(#grad4)" opacity="0.7"/>
  
  <!-- Geometric elements -->
  <polygon points="50,80 90,40 130,80 90,120" fill="#02333d" opacity="0.3"/>
  <polygon points="100,250 140,210 180,250 140,290" fill="#d4ba7d" opacity="0.35"/>
  <polygon points="80,420 120,380 160,420 120,460" fill="#02333d" opacity="0.4"/>
  
  <!-- Abstract shapes -->
  <ellipse cx="150" cy="120" rx="30" ry="15" fill="#d4ba7d" opacity="0.3" transform="rotate(30 150 120)"/>
  <ellipse cx="180" cy="480" rx="25" ry="12" fill="#02333d" opacity="0.35" transform="rotate(-45 180 480)"/>
  
  <!-- Curved lines -->
  <path d="M 400 180 Q 300 130 200 180 T 0 160" stroke="#02333d" stroke-width="2" fill="none" opacity="0.3"/>
  <path d="M 400 320 Q 250 270 100 320 T 0 300" stroke="#d4ba7d" stroke-width="1.5" fill="none" opacity="0.25"/>
  
  <!-- Accent elements -->
  <circle cx="80" cy="200" r="12" fill="#d4ba7d" opacity="0.5"/>
  <circle cx="50" cy="350" r="8" fill="#02333d" opacity="0.6"/>
  <circle cx="120" cy="550" r="15" fill="#d4ba7d" opacity="0.4"/>
  <circle cx="20" cy="480" r="6" fill="#02333d" opacity="0.7"/>
</svg>

