<svg width="96" height="104" fill="none" xmlns="http://www.w3.org/2000/svg"><g filter="url(#filter0_d)" fill-rule="evenodd" clip-rule="evenodd"><path d="M48.466 17c14.623 0 26.476 11.864 26.476 26.5 0 14.635-11.853 26.5-26.476 26.5C33.844 70 21.99 58.135 21.99 43.5c0-14.636 11.854-26.5 26.476-26.5z" fill="#d4ba7d"/><path d="M48.466 17c14.623 0 26.476 11.864 26.476 26.5 0 14.635-11.853 26.5-26.476 26.5C33.844 70 21.99 58.135 21.99 43.5c0-14.636 11.854-26.5 26.476-26.5z" fill="url(#paint0_linear)"/></g><path fill-rule="evenodd" clip-rule="evenodd" d="M42.972 1h9.991c16.554 0 29.973 13.43 29.973 30v10c0 16.568-13.42 30-29.973 30h-9.99c-16.554 0-29.974-13.432-29.974-30V31c0-16.569 13.42-30 29.973-30z" fill="#d4ba7d"/><path fill-rule="evenodd" clip-rule="evenodd" d="M42.972 1h9.991c16.554 0 29.973 13.43 29.973 30v10c0 16.568-13.42 30-29.973 30h-9.99c-16.554 0-29.974-13.432-29.974-30V31c0-16.569 13.42-30 29.973-30z" fill="url(#paint1_linear)"/><path fill-rule="evenodd" clip-rule="evenodd" d="M35 25h26c2.2 0 4 1.8 4 4v20c0 2.2-1.8 4-4 4H35c-2.2 0-4-1.8-4-4V29c0-2.2 1.8-4 4-4zm2 6h22v14H37V31zm6-3c-1.1 0-2-.9-2-2s.9-2 2-2 2 .9 2 2-.9 2-2 2zm10 0c-1.1 0-2-.9-2-2s.9-2 2-2 2 .9 2 2-.9 2-2 2z" fill="#fff"/><defs><linearGradient id="paint0_linear" x1="52.598" y1="102.635" x2="107.605" y2="39.414" gradientUnits="userSpaceOnUse"><stop stop-color="#02333d"/><stop offset="1" stop-color="#d4ba7d"/></linearGradient><linearGradient id="paint1_linear" x1="53.376" y1="113.413" x2="125.385" y2="30.651" gradientUnits="userSpaceOnUse"><stop stop-color="#02333d"/><stop offset="1" stop-color="#d4ba7d"/></linearGradient><filter id="filter0_d" x=".99" y="9" width="94.952" height="95" filterUnits="userSpaceOnUse" color-interpolation-filters="sRGB"><feFlood flood-opacity="0" result="BackgroundImageFix"/><feColorMatrix in="SourceAlpha" values="0 0 0 0 0 0 0 0 0 0 0 0 0 0 0 0 0 0 127 0"/><feOffset dy="13"/><feGaussianBlur stdDeviation="10.5"/><feColorMatrix values="0 0 0 0 0.831 0 0 0 0 0.729 0 0 0 0 0.490 0 0 0 0.3 0"/><feBlend in2="BackgroundImageFix" result="effect1_dropShadow"/><feBlend in="SourceGraphic" in2="effect1_dropShadow" result="shape"/></filter></defs></svg>
