<svg width="96" height="104" fill="none" xmlns="http://www.w3.org/2000/svg"><g filter="url(#filter0_d)"><path fill-rule="evenodd" clip-rule="evenodd" d="M47.96 17c14.622 0 26.476 11.864 26.476 26.5 0 14.635-11.854 26.5-26.476 26.5-14.623 0-26.477-11.865-26.477-26.5 0-14.636 11.854-26.5 26.477-26.5z" fill="#d4ba7d"/></g><path fill-rule="evenodd" clip-rule="evenodd" d="M42.465 1h9.991C69.01 1 82.43 14.43 82.43 31v10c0 16.568-13.42 30-29.974 30h-9.99c-16.554 0-29.974-13.432-29.974-30V31c0-16.569 13.42-30 29.973-30z" fill="#d4ba7d"/><path fill-rule="evenodd" clip-rule="evenodd" d="M42.465 1h9.991C69.01 1 82.43 14.43 82.43 31v10c0 16.568-13.42 30-29.974 30h-9.99c-16.554 0-29.974-13.432-29.974-30V31c0-16.569 13.42-30 29.973-30z" fill="url(#paint0_linear)"/><path fill-rule="evenodd" clip-rule="evenodd" d="M33 25h8v8h-8v-8zm0 12h8v8h-8v-8zm12-12h8v8h-8v-8zm0 12h8v8h-8v-8zm12-12h8v8h-8v-8zm0 12h8v8h-8v-8z" fill="#fff"/><defs><linearGradient id="paint0_linear" x1="52.869" y1="113.413" x2="124.878" y2="30.651" gradientUnits="userSpaceOnUse"><stop stop-color="#02333d"/><stop offset="1" stop-color="#d4ba7d"/></linearGradient><filter id="filter0_d" x=".483" y="9" width="94.952" height="95" filterUnits="userSpaceOnUse" color-interpolation-filters="sRGB"><feFlood flood-opacity="0" result="BackgroundImageFix"/><feColorMatrix in="SourceAlpha" values="0 0 0 0 0 0 0 0 0 0 0 0 0 0 0 0 0 0 127 0"/><feOffset dy="13"/><feGaussianBlur stdDeviation="10.5"/><feColorMatrix values="0 0 0 0 0.831 0 0 0 0 0.729 0 0 0 0 0.490 0 0 0 0.3 0"/><feBlend in2="BackgroundImageFix" result="effect1_dropShadow"/><feBlend in="SourceGraphic" in2="effect1_dropShadow" result="shape"/></filter></defs></svg>
